<svg width="17" height="13" viewBox="0 0 17 13" fill="none" xmlns="http://www.w3.org/2000/svg">
<path d="M14.069 6.5C14.069 6.81826 13.9763 7.12348 13.8114 7.34853C13.6465 7.57357 13.4229 7.7 13.1897 7.7H3.81034C3.57714 7.7 3.35348 7.57357 3.18858 7.34853C3.02368 7.12348 2.93103 6.81826 2.93103 6.5C2.93103 6.18174 3.02368 5.87652 3.18858 5.65147C3.35348 5.42643 3.57714 5.3 3.81034 5.3H13.1897C13.4229 5.3 13.6465 5.42643 13.8114 5.65147C13.9763 5.87652 14.069 6.18174 14.069 6.5ZM16.1207 0.5H0.87931C0.646103 0.5 0.422447 0.626428 0.257544 0.851472C0.0926414 1.07652 0 1.38174 0 1.7C0 2.01826 0.0926414 2.32348 0.257544 2.54853C0.422447 2.77357 0.646103 2.9 0.87931 2.9H16.1207C16.3539 2.9 16.5776 2.77357 16.7425 2.54853C16.9074 2.32348 17 2.01826 17 1.7C17 1.38174 16.9074 1.07652 16.7425 0.851472C16.5776 0.626428 16.3539 0.5 16.1207 0.5ZM10.2586 10.1H6.74138C6.50817 10.1 6.28452 10.2264 6.11961 10.4515C5.95471 10.6765 5.86207 10.9817 5.86207 11.3C5.86207 11.6183 5.95471 11.9235 6.11961 12.1485C6.28452 12.3736 6.50817 12.5 6.74138 12.5H10.2586C10.4918 12.5 10.7155 12.3736 10.8804 12.1485C11.0453 11.9235 11.1379 11.6183 11.1379 11.3C11.1379 10.9817 11.0453 10.6765 10.8804 10.4515C10.7155 10.2264 10.4918 10.1 10.2586 10.1Z" fill="#111D63"/>
</svg>
