<svg width="12" height="12" viewBox="0 0 12 12" fill="none" xmlns="http://www.w3.org/2000/svg">
<path fill-rule="evenodd" clip-rule="evenodd" d="M1.875 0.375C1.37772 0.375 0.900806 0.572544 0.549175 0.924175C0.197544 1.27581 0 1.75272 0 2.25V9.75C0 10.2473 0.197544 10.7242 0.549175 11.0758C0.900806 11.4275 1.37772 11.625 1.875 11.625H9.375C9.87228 11.625 10.3492 11.4275 10.7008 11.0758C11.0525 10.7242 11.25 10.2473 11.25 9.75V2.25C11.25 1.75272 11.0525 1.27581 10.7008 0.924175C10.3492 0.572544 9.87228 0.375 9.375 0.375H1.875ZM1.25 9.75V2.875H10V9.75C10 9.91576 9.93415 10.0747 9.81694 10.1919C9.69973 10.3092 9.54076 10.375 9.375 10.375H1.875C1.70924 10.375 1.55027 10.3092 1.43306 10.1919C1.31585 10.0747 1.25 9.91576 1.25 9.75Z" fill="#1E1E1E"/>
</svg>
