<svg width="20" height="20" viewBox="0 0 20 20" fill="none" xmlns="http://www.w3.org/2000/svg">
<path d="M10 13.7502C7.9375 13.7502 6.25 12.0627 6.25 10.0002C6.25 7.93768 7.9375 6.25018 10 6.25018C12.0625 6.25018 13.75 7.93768 13.75 10.0002C13.75 12.0627 12.0625 13.7502 10 13.7502ZM10 7.50018C8.625 7.50018 7.5 8.62518 7.5 10.0002C7.5 11.3752 8.625 12.5002 10 12.5002C11.375 12.5002 12.5 11.3752 12.5 10.0002C12.5 8.62518 11.375 7.50018 10 7.50018Z" fill="#9CA3AF"/>
<path d="M10.0002 16.2502C6.01265 16.2502 2.51265 13.8252 1.28765 10.2002C1.23745 10.0716 1.23745 9.92879 1.28765 9.80018C2.51265 6.18768 6.02515 3.75018 10.0002 3.75018C13.9752 3.75018 17.4877 6.17518 18.7127 9.80018C18.7627 9.92518 18.7627 10.0752 18.7127 10.2002C17.4877 13.8127 13.9752 16.2502 10.0002 16.2502ZM2.53765 10.0002C3.65015 13.0002 6.62515 15.0002 10.0002 15.0002C13.3752 15.0002 16.3377 13.0002 17.4627 10.0002C16.3502 7.00018 13.3752 5.00018 10.0002 5.00018C6.62515 5.00018 3.66265 7.00018 2.53765 10.0002Z" fill="#9CA3AF"/>
<path d="M17.5 18.1252C17.418 18.1262 17.3368 18.11 17.2614 18.0777C17.1861 18.0454 17.1183 17.9977 17.0625 17.9377L2.0625 2.93767C1.8125 2.68767 1.8125 2.30017 2.0625 2.05017C2.3125 1.80017 2.7 1.80017 2.95 2.05017L17.9375 17.0627C18.1875 17.3127 18.1875 17.7002 17.9375 17.9502C17.8125 18.0752 17.65 18.1377 17.5 18.1377V18.1252Z" fill="#9CA3AF"/>
</svg>
