<svg width="11" height="11" viewBox="0 0 11 11" fill="none" xmlns="http://www.w3.org/2000/svg">
<path fill-rule="evenodd" clip-rule="evenodd" d="M8.20298 0.464595C8.0938 0.290142 7.93294 0.154069 7.7428 0.075317C7.55266 -0.00343453 7.3427 -0.0209462 7.14214 0.0252203L5.71873 0.352179C5.57285 0.385707 5.42127 0.385707 5.27539 0.352179L3.85198 0.0252203C3.65142 -0.0209462 3.44146 -0.00343453 3.25132 0.075317C3.06118 0.154069 2.90033 0.290142 2.79114 0.464595L2.01531 1.70276C1.93614 1.82943 1.82927 1.9363 1.7026 2.01626L0.464436 2.7921C0.290284 2.90118 0.15441 3.06177 0.0756756 3.25159C-0.00305903 3.4414 -0.0207489 3.65102 0.0250613 3.85134L0.35202 5.27634C0.385427 5.42197 0.385427 5.57326 0.35202 5.71889L0.0250613 7.1431C-0.020927 7.34354 -0.0033261 7.55333 0.075417 7.7433C0.15416 7.93328 0.290133 8.094 0.464436 8.20314L1.7026 8.97897C1.82927 9.05814 1.93614 9.16501 2.0161 9.29168L2.79194 10.5298C3.01519 10.8869 3.4411 11.0634 3.85198 10.9692L5.27539 10.6423C5.42127 10.6087 5.57285 10.6087 5.71873 10.6423L7.14294 10.9692C7.34338 11.0152 7.55317 10.9976 7.74314 10.9189C7.93312 10.8401 8.09385 10.7041 8.20298 10.5298L8.97881 9.29168C9.05798 9.16501 9.16485 9.05814 9.29152 8.97897L10.5305 8.20314C10.7048 8.09385 10.8407 7.93294 10.9193 7.74281C10.9979 7.55268 11.0153 7.34278 10.9691 7.1423L10.6429 5.71889C10.6094 5.57301 10.6094 5.42143 10.6429 5.27555L10.9699 3.85134C11.0159 3.65099 10.9984 3.44126 10.9198 3.25129C10.8412 3.06132 10.7054 2.90055 10.5313 2.7913L9.29231 2.01547C9.16582 1.93616 9.05892 1.82925 8.9796 1.70276L8.20298 0.464595ZM7.80477 3.7318C7.85373 3.64176 7.86587 3.53624 7.83861 3.43744C7.81136 3.33864 7.74684 3.25426 7.65864 3.20205C7.57044 3.14985 7.46543 3.1339 7.3657 3.15754C7.26598 3.18119 7.17931 3.2426 7.12394 3.32884L5.05373 6.83276L3.80369 5.63576C3.7666 5.59768 3.72223 5.56746 3.67321 5.54691C3.6242 5.52635 3.57154 5.51587 3.51839 5.51611C3.46524 5.51634 3.41268 5.52727 3.36384 5.54826C3.31501 5.56924 3.2709 5.59984 3.23415 5.63825C3.1974 5.67664 3.16876 5.72205 3.14993 5.77176C3.13111 5.82147 3.12249 5.87446 3.12459 5.92757C3.12669 5.98068 3.13947 6.03283 3.16215 6.08089C3.18484 6.12896 3.21698 6.17197 3.25664 6.20735L4.86689 7.7503C4.90999 7.79151 4.96184 7.82245 5.01857 7.84081C5.0753 7.85917 5.13545 7.86448 5.19452 7.85633C5.25359 7.84819 5.31006 7.8268 5.3597 7.79377C5.40935 7.76075 5.45089 7.71693 5.48123 7.6656L7.80477 3.7318Z" fill="#6B911B"/>
</svg>
