<svg width="16" height="19" viewBox="0 0 16 19" fill="none" xmlns="http://www.w3.org/2000/svg">
<path d="M14.6663 5.33464V17.0013C14.6663 17.2223 14.5785 17.4343 14.4223 17.5906C14.266 17.7468 14.054 17.8346 13.833 17.8346H2.16634C1.94533 17.8346 1.73337 17.7468 1.57709 17.5906C1.42081 17.4343 1.33301 17.2223 1.33301 17.0013V2.0013C1.33301 1.78029 1.42081 1.56833 1.57709 1.41205C1.73337 1.25577 1.94533 1.16797 2.16634 1.16797H10.4997M14.6663 5.33464H10.4997V1.16797M14.6663 5.33464L10.4997 1.16797M5.49967 8.66797L10.4997 13.668M10.4997 8.66797L5.49967 13.668" stroke="#888888" stroke-width="1.5" stroke-linecap="round" stroke-linejoin="round"/>
</svg>
