<svg width="16" height="19" viewBox="0 0 16 19" fill="none" xmlns="http://www.w3.org/2000/svg">
<path d="M4.20182 16.6387H11.5352V13.8887C11.5352 12.8803 11.1761 12.0171 10.4581 11.2991C9.74002 10.581 8.87682 10.222 7.86849 10.222C6.86016 10.222 5.99696 10.581 5.27891 11.2991C4.56085 12.0171 4.20182 12.8803 4.20182 13.8887V16.6387ZM0.535156 18.472V16.6387H2.36849V13.8887C2.36849 12.9567 2.5862 12.0821 3.02161 11.2647C3.45703 10.4474 4.06432 9.79423 4.84349 9.30534C4.06432 8.81645 3.45703 8.16332 3.02161 7.34596C2.5862 6.5286 2.36849 5.65395 2.36849 4.722V1.97201H0.535156V0.138672H15.2018V1.97201H13.3685V4.722C13.3685 5.65395 13.1508 6.5286 12.7154 7.34596C12.2799 8.16332 11.6727 8.81645 10.8935 9.30534C11.6727 9.79423 12.2799 10.4474 12.7154 11.2647C13.1508 12.0821 13.3685 12.9567 13.3685 13.8887V16.6387H15.2018V18.472H0.535156Z" fill="#E68C16"/>
</svg>
