<svg width="16" height="19" viewBox="0 0 16 19" fill="none" xmlns="http://www.w3.org/2000/svg">
<path d="M4.20182 16.6367H11.5352V13.8867C11.5352 12.8784 11.1761 12.0152 10.4581 11.2971C9.74002 10.5791 8.87682 10.2201 7.86849 10.2201C6.86016 10.2201 5.99696 10.5791 5.27891 11.2971C4.56085 12.0152 4.20182 12.8784 4.20182 13.8867V16.6367ZM0.535156 18.4701V16.6367H2.36849V13.8867C2.36849 12.9548 2.5862 12.0801 3.02161 11.2628C3.45703 10.4454 4.06432 9.79227 4.84349 9.30338C4.06432 8.8145 3.45703 8.16137 3.02161 7.34401C2.5862 6.52665 2.36849 5.652 2.36849 4.72005V1.97005H0.535156V0.136719H15.2018V1.97005H13.3685V4.72005C13.3685 5.652 13.1508 6.52665 12.7154 7.34401C12.2799 8.16137 11.6727 8.8145 10.8935 9.30338C11.6727 9.79227 12.2799 10.4454 12.7154 11.2628C13.1508 12.0801 13.3685 12.9548 13.3685 13.8867V16.6367H15.2018V18.4701H0.535156Z" fill="#6B911B"/>
</svg>
