<svg width="18" height="14" viewBox="0 0 18 14" fill="none" xmlns="http://www.w3.org/2000/svg">
<path d="M2.33366 13.6654C1.87533 13.6654 1.48296 13.5022 1.15658 13.1758C0.830187 12.8494 0.666992 12.457 0.666992 11.9987V1.9987C0.666992 1.54036 0.830187 1.148 1.15658 0.821615C1.48296 0.495226 1.87533 0.332031 2.33366 0.332031H15.667C16.1253 0.332031 16.5177 0.495226 16.8441 0.821615C17.1705 1.148 17.3337 1.54036 17.3337 1.9987V11.9987C17.3337 12.457 17.1705 12.8494 16.8441 13.1758C16.5177 13.5022 16.1253 13.6654 15.667 13.6654H2.33366ZM2.33366 11.9987H15.667V3.66536H2.33366V11.9987ZM8.12533 10.7904L5.16699 7.83203L6.37533 6.6237L8.12533 8.3737L11.6253 4.8737L12.8337 6.08203L8.12533 10.7904Z" fill="#888888"/>
</svg>
