<svg width="19" height="19" viewBox="0 0 19 19" fill="none" xmlns="http://www.w3.org/2000/svg">
<path d="M17.0732 18.3984L14.3232 15.6484H3.36491C2.90658 15.6484 2.51421 15.4852 2.18783 15.1589C1.86144 14.8325 1.69824 14.4401 1.69824 13.9818V3.98177C1.69824 3.52344 1.86144 3.13108 2.18783 2.80469C2.51421 2.4783 2.90658 2.3151 3.36491 2.3151V4.6901L0.573242 1.89844L1.76074 0.710938L18.2607 17.2109L17.0732 18.3984ZM3.36491 13.9818H12.6566L4.32324 5.64844H3.36491V13.9818ZM18.1774 14.7526L16.6982 13.2734V5.64844H9.07324L5.73991 2.3151H16.6982C17.1566 2.3151 17.5489 2.4783 17.8753 2.80469C18.2017 3.13108 18.3649 3.52344 18.3649 3.98177V13.9818C18.3649 14.1207 18.351 14.2561 18.3232 14.388C18.2955 14.52 18.2469 14.6415 18.1774 14.7526ZM12.6774 9.2526L11.4691 8.04427L12.6566 6.85677L13.8649 8.0651L12.6774 9.2526ZM11.4899 10.4401L9.15658 12.7734L6.19824 9.8151L7.40658 8.60677L9.15658 10.3568L10.2816 9.23177L11.4899 10.4401Z" fill="#888888"/>
</svg>
