<svg width="14" height="19" viewBox="0 0 14 19" fill="none" xmlns="http://www.w3.org/2000/svg">
<path d="M1.9987 18.332C1.54036 18.332 1.148 18.1688 0.821615 17.8424C0.495226 17.5161 0.332031 17.1237 0.332031 16.6654V8.33203C0.332031 7.8737 0.495226 7.48134 0.821615 7.15495C1.148 6.82856 1.54036 6.66536 1.9987 6.66536H2.83203V4.9987C2.83203 3.84592 3.23828 2.86328 4.05078 2.05078C4.86328 1.23828 5.84592 0.832031 6.9987 0.832031C8.15147 0.832031 9.13411 1.23828 9.94661 2.05078C10.7591 2.86328 11.1654 3.84592 11.1654 4.9987V6.66536H11.9987C12.457 6.66536 12.8494 6.82856 13.1758 7.15495C13.5022 7.48134 13.6654 7.8737 13.6654 8.33203V16.6654C13.6654 17.1237 13.5022 17.5161 13.1758 17.8424C12.8494 18.1688 12.457 18.332 11.9987 18.332H1.9987ZM1.9987 16.6654H11.9987V8.33203H1.9987V16.6654ZM6.9987 14.1654C7.45703 14.1654 7.84939 14.0022 8.17578 13.6758C8.50217 13.3494 8.66536 12.957 8.66536 12.4987C8.66536 12.0404 8.50217 11.648 8.17578 11.3216C7.84939 10.9952 7.45703 10.832 6.9987 10.832C6.54036 10.832 6.148 10.9952 5.82161 11.3216C5.49523 11.648 5.33203 12.0404 5.33203 12.4987C5.33203 12.957 5.49523 13.3494 5.82161 13.6758C6.148 14.0022 6.54036 14.1654 6.9987 14.1654ZM4.4987 6.66536H9.4987V4.9987C9.4987 4.30425 9.25564 3.71398 8.76953 3.22786C8.28342 2.74175 7.69314 2.4987 6.9987 2.4987C6.30425 2.4987 5.71398 2.74175 5.22786 3.22786C4.74175 3.71398 4.4987 4.30425 4.4987 4.9987V6.66536Z" fill="#1E1E1E" fill-opacity="0.5"/>
</svg>
