<svg width="18" height="14" viewBox="0 0 18 14" fill="none" xmlns="http://www.w3.org/2000/svg">
<path d="M2.33464 13.6654C1.8763 13.6654 1.48394 13.5022 1.15755 13.1758C0.831163 12.8494 0.667969 12.457 0.667969 11.9987V1.9987C0.667969 1.54036 0.831163 1.148 1.15755 0.821615C1.48394 0.495226 1.8763 0.332031 2.33464 0.332031H15.668C16.1263 0.332031 16.5187 0.495226 16.845 0.821615C17.1714 1.148 17.3346 1.54036 17.3346 1.9987V11.9987C17.3346 12.457 17.1714 12.8494 16.845 13.1758C16.5187 13.5022 16.1263 13.6654 15.668 13.6654H2.33464ZM9.0013 7.83203L2.33464 3.66536V11.9987H15.668V3.66536L9.0013 7.83203ZM9.0013 6.16536L15.668 1.9987H2.33464L9.0013 6.16536ZM2.33464 3.66536V1.9987V11.9987V3.66536Z" fill="#1E1E1E" fill-opacity="0.5"/>
</svg>
