<svg width="13" height="13" viewBox="0 0 13 13" fill="none" xmlns="http://www.w3.org/2000/svg">
<path d="M1.19083 1.78615L4.62471 11.7063C4.65705 11.7997 4.71809 11.8805 4.79911 11.9371C4.88013 11.9938 4.97698 12.0233 5.07582 12.0216C5.17466 12.0199 5.27042 11.987 5.34943 11.9276C5.42843 11.8681 5.48663 11.7853 5.5157 11.6908L6.89591 7.2051C6.91839 7.13203 6.95841 7.06556 7.01247 7.0115C7.06654 6.95744 7.133 6.91742 7.20608 6.89493L11.6918 5.51472C11.7862 5.48565 11.8691 5.42745 11.9285 5.34845C11.988 5.26945 12.0209 5.17368 12.0226 5.07484C12.0243 4.97601 11.9947 4.87916 11.9381 4.79814C11.8815 4.71712 11.8007 4.65608 11.7072 4.62374L1.78712 1.18985C1.70399 1.16108 1.61445 1.15627 1.52872 1.17599C1.44299 1.19571 1.36454 1.23915 1.30233 1.30136C1.24013 1.36356 1.19669 1.44201 1.17697 1.52774C1.15725 1.61347 1.16205 1.70302 1.19083 1.78615Z" fill="#1E1E1E"/>
<path d="M6.89591 7.2051L5.5157 11.6908C5.48663 11.7853 5.42843 11.8681 5.34943 11.9276C5.27042 11.987 5.17466 12.0199 5.07582 12.0216C4.97698 12.0233 4.88013 11.9938 4.79911 11.9371C4.71809 11.8805 4.65705 11.7997 4.62471 11.7063L1.19083 1.78615C1.16205 1.70302 1.15725 1.61347 1.17697 1.52774C1.19669 1.44201 1.24013 1.36356 1.30233 1.30136C1.36454 1.23915 1.44299 1.19571 1.52872 1.17599C1.61445 1.15627 1.70399 1.16108 1.78712 1.18985L11.7072 4.62374C11.8007 4.65608 11.8815 4.71712 11.9381 4.79814C11.9947 4.87916 12.0243 4.97601 12.0226 5.07484C12.0209 5.17368 11.988 5.26945 11.9285 5.34845C11.8691 5.42745 11.7862 5.48565 11.6918 5.51472L7.20608 6.89493C7.133 6.91742 7.06654 6.95744 7.01247 7.0115C6.95841 7.06556 6.91839 7.13203 6.89591 7.2051ZM6.89591 7.2051L5 11.5L1.78712 1.78615L11.5 5" stroke="#1E1E1E" stroke-width="1.5" stroke-linecap="round" stroke-linejoin="round"/>
</svg>
