<svg width="14" height="14" viewBox="0 0 14 14" fill="none" xmlns="http://www.w3.org/2000/svg">
<path d="M6.9987 6.9987C6.08203 6.9987 5.29731 6.67231 4.64453 6.01953C3.99175 5.36675 3.66536 4.58203 3.66536 3.66536C3.66536 2.7487 3.99175 1.96398 4.64453 1.3112C5.29731 0.65842 6.08203 0.332031 6.9987 0.332031C7.91536 0.332031 8.70009 0.65842 9.35286 1.3112C10.0056 1.96398 10.332 2.7487 10.332 3.66536C10.332 4.58203 10.0056 5.36675 9.35286 6.01953C8.70009 6.67231 7.91536 6.9987 6.9987 6.9987ZM0.332031 13.6654V11.332C0.332031 10.8598 0.453559 10.4258 0.696615 10.0299C0.93967 9.63411 1.26259 9.33203 1.66536 9.1237C2.52648 8.69314 3.40148 8.37022 4.29036 8.15495C5.17925 7.93967 6.08203 7.83203 6.9987 7.83203C7.91536 7.83203 8.81814 7.93967 9.70703 8.15495C10.5959 8.37022 11.4709 8.69314 12.332 9.1237C12.7348 9.33203 13.0577 9.63411 13.3008 10.0299C13.5438 10.4258 13.6654 10.8598 13.6654 11.332V13.6654H0.332031ZM1.9987 11.9987H11.9987V11.332C11.9987 11.1793 11.9605 11.0404 11.8841 10.9154C11.8077 10.7904 11.707 10.6931 11.582 10.6237C10.832 10.2487 10.0751 9.96745 9.3112 9.77995C8.54731 9.59245 7.77647 9.4987 6.9987 9.4987C6.22092 9.4987 5.45009 9.59245 4.6862 9.77995C3.92231 9.96745 3.16536 10.2487 2.41536 10.6237C2.29036 10.6931 2.18967 10.7904 2.11328 10.9154C2.03689 11.0404 1.9987 11.1793 1.9987 11.332V11.9987ZM6.9987 5.33203C7.45703 5.33203 7.84939 5.16884 8.17578 4.84245C8.50217 4.51606 8.66536 4.1237 8.66536 3.66536C8.66536 3.20703 8.50217 2.81467 8.17578 2.48828C7.84939 2.16189 7.45703 1.9987 6.9987 1.9987C6.54036 1.9987 6.148 2.16189 5.82161 2.48828C5.49523 2.81467 5.33203 3.20703 5.33203 3.66536C5.33203 4.1237 5.49523 4.51606 5.82161 4.84245C6.148 5.16884 6.54036 5.33203 6.9987 5.33203Z" fill="#1E1E1E" fill-opacity="0.5"/>
</svg>
