<svg width="21" height="22" viewBox="0 0 21 22" fill="none" xmlns="http://www.w3.org/2000/svg">
<path d="M10.498 1C7.48997 1 5.53997 3.019 3.23397 3.755C2.29597 4.055 1.82697 4.204 1.63697 4.415C1.44697 4.625 1.39197 4.934 1.28097 5.55C0.0909704 12.146 2.69097 18.244 8.89097 20.618C9.55597 20.873 9.88897 21 10.501 21C11.113 21 11.447 20.872 12.113 20.617C18.312 18.244 20.909 12.146 19.719 5.55C19.608 4.934 19.552 4.625 19.362 4.414C19.172 4.203 18.704 4.054 17.766 3.755C15.459 3.019 13.506 1 10.498 1Z" stroke="#1E1E1E" stroke-width="2" stroke-linecap="round" stroke-linejoin="round"/>
<path d="M8.75014 8.95848C8.75014 8.89848 8.75814 8.55248 8.76014 8.11848C8.76014 7.72048 8.72614 7.33848 8.91614 6.98848C9.62614 5.57448 11.6661 5.71848 12.1701 7.15848C12.2571 7.39548 12.2631 7.77048 12.2601 8.11848C12.2571 8.56148 12.2661 8.95848 12.2661 8.95848M8.83714 9.37948C7.75714 9.37948 7.21714 10.1595 7.09714 10.6395C6.97714 11.1195 6.97714 12.8595 7.04914 13.5795C7.28914 14.4795 7.88914 14.8515 8.47714 14.9715C9.01714 15.0195 11.2971 15.0015 11.9571 15.0015C12.9171 15.0195 13.6371 14.6595 13.9371 13.5795C13.9971 13.2195 14.0571 11.2395 13.9071 10.6395C13.5891 9.67948 12.7971 9.37948 12.1971 9.37948H8.83714Z" stroke="#1E1E1E" stroke-width="2" stroke-linecap="round" stroke-linejoin="round"/>
</svg>
