<svg width="10" height="10" viewBox="0 0 10 10" fill="none" xmlns="http://www.w3.org/2000/svg">
<path fill-rule="evenodd" clip-rule="evenodd" d="M2.88462 3.3321C2.73161 3.3321 2.58486 3.27358 2.47667 3.1694C2.36847 3.06523 2.30769 2.92395 2.30769 2.77663V2.22337C2.00167 2.22337 1.70819 2.34042 1.4918 2.54876C1.27541 2.75711 1.15385 3.03968 1.15385 3.33432V4.07495H8.84615V3.33432C8.84615 3.03968 8.72459 2.75711 8.5082 2.54876C8.29181 2.34042 7.99833 2.22337 7.69231 2.22337V2.77885C7.69231 2.92617 7.63152 3.06746 7.52333 3.17163C7.41514 3.2758 7.26839 3.33432 7.11538 3.33432C6.96238 3.33432 6.81563 3.2758 6.70744 3.17163C6.59924 3.06746 6.53846 2.92617 6.53846 2.77885V2.22337H3.46154V2.77663C3.46154 2.92395 3.40076 3.06523 3.29256 3.1694C3.18437 3.27358 3.03762 3.3321 2.88462 3.3321ZM6.53846 1.11243H3.46154V0.555473C3.46154 0.408153 3.40076 0.266866 3.29256 0.162694C3.18437 0.0585229 3.03762 0 2.88462 0C2.73161 0 2.58486 0.0585229 2.47667 0.162694C2.36847 0.266866 2.30769 0.408153 2.30769 0.555473V1.11243C1.69565 1.11243 1.10868 1.34652 0.675907 1.76321C0.243131 2.17989 0 2.74504 0 3.33432V7.77811C0 8.36739 0.243131 8.93254 0.675907 9.34922C1.10868 9.76591 1.69565 10 2.30769 10H7.69231C8.30435 10 8.89132 9.76591 9.32409 9.34922C9.75687 8.93254 10 8.36739 10 7.77811V3.33432C10 2.74504 9.75687 2.17989 9.32409 1.76321C8.89132 1.34652 8.30435 1.11243 7.69231 1.11243V0.556955C7.69231 0.409634 7.63152 0.268347 7.52333 0.164176C7.41514 0.0600042 7.26839 0.00148124 7.11538 0.00148124C6.96238 0.00148124 6.81563 0.0600042 6.70744 0.164176C6.59924 0.268347 6.53846 0.409634 6.53846 0.556955V1.11243ZM1.15385 5.1859V7.77811C1.15385 8.07275 1.27541 8.35532 1.4918 8.56367C1.70819 8.77201 2.00167 8.88905 2.30769 8.88905H7.69231C7.99833 8.88905 8.29181 8.77201 8.5082 8.56367C8.72459 8.35532 8.84615 8.07275 8.84615 7.77811V5.1859H1.15385Z" fill="#475466"/>
</svg>
