<svg width="10" height="14" viewBox="0 0 10 14" fill="none" xmlns="http://www.w3.org/2000/svg">
<path d="M9.16667 4.11765C9.16667 2.98035 8.7 1.95094 7.94667 1.20647C7.1925 0.461177 6.15083 0 5 0C3.84917 0 2.8075 0.461177 2.05333 1.20647C1.3 1.95094 0.833333 2.98035 0.833333 4.11765C0.833333 5.25494 1.3 6.28435 2.05333 7.02882C2.8075 7.77412 3.84917 8.23529 5 8.23529C6.15083 8.23529 7.1925 7.77412 7.94667 7.02882C8.33419 6.64703 8.64149 6.19326 8.85087 5.69364C9.06024 5.19402 9.16757 4.65842 9.16667 4.11765ZM0 12.3529C0 13.1765 1.875 14 5 14C7.93167 14 10 13.1765 10 12.3529C10 10.7059 8.03833 9.05882 5 9.05882C1.875 9.05882 0 10.7059 0 12.3529Z" fill="#1E1E1E"/>
</svg>
