<svg width="18" height="17" viewBox="0 0 18 17" fill="none" xmlns="http://www.w3.org/2000/svg">
<path d="M1.03816 16.3594C0.267826 16.3594 -0.213233 15.525 0.172732 14.8583L8.06329 1.2292C8.44845 0.563916 9.40897 0.563917 9.79414 1.2292L17.6847 14.8583C18.0707 15.525 17.5896 16.3594 16.8193 16.3594H1.03816ZM3.1949 13.1072C2.80772 13.7738 3.28871 14.6094 4.05964 14.6094H13.7978C14.5687 14.6094 15.0497 13.7738 14.6625 13.1072L9.79345 4.72334C9.40799 4.05962 8.44943 4.05962 8.06397 4.72334L3.1949 13.1072ZM8.92871 13.7344C9.17663 13.7344 9.38444 13.6505 9.55215 13.4828C9.71986 13.3151 9.80371 13.1073 9.80371 12.8594C9.80371 12.6115 9.71986 12.4036 9.55215 12.2359C9.38444 12.0682 9.17663 11.9844 8.92871 11.9844C8.68079 11.9844 8.47298 12.0682 8.30527 12.2359C8.13757 12.4036 8.05371 12.6115 8.05371 12.8594C8.05371 13.1073 8.13757 13.3151 8.30527 13.4828C8.47298 13.6505 8.68079 13.7344 8.92871 13.7344ZM8.05371 10.2344C8.05371 10.7176 8.44546 11.1094 8.92871 11.1094C9.41196 11.1094 9.80371 10.7176 9.80371 10.2344V7.60938C9.80371 7.12613 9.41196 6.73438 8.92871 6.73438C8.44546 6.73438 8.05371 7.12613 8.05371 7.60938V10.2344Z" fill="#BC332A"/>
</svg>
